<svg width="180" height="180" viewBox="0 0 180 180" fill="none" xmlns="http://www.w3.org/2000/svg">
<path d="M89.9363 180C139.607 180 179.873 139.762 179.873 90.125C179.873 40.4884 139.607 0.25 89.9363 0.25C40.2659 0.25 0 40.4884 0 90.125C0 139.762 40.2659 180 89.9363 180Z" fill="#E1E1FF"/>
<g style="mix-blend-mode:screen" opacity="0.06">
<g style="mix-blend-mode:screen" opacity="0.06">
<path d="M89.9363 180C139.607 180 179.873 139.762 179.873 90.125C179.873 40.4884 139.607 0.25 89.9363 0.25C40.2659 0.25 0 40.4884 0 90.125C0 139.762 40.2659 180 89.9363 180Z" fill="white"/>
</g>
</g>
<path d="M179.995 89.8709C180.165 139.702 138.945 181.082 87.6149 179.736C39.0916 178.466 0.0846701 138.563 0.141175 89.7109C0.202388 40.0349 41.22 -1.34522 92.6155 0.0334871C141.078 1.3322 180.094 41.1454 180 89.8709H179.995ZM174.712 89.9415C174.867 43.9734 137.852 6.33415 92.0976 5.29423C44.5867 4.21668 6.39905 42.0959 5.43847 87.9934C4.44493 135.415 42.3406 173.577 88.3165 174.485C136.199 175.431 174.863 136.681 174.721 89.9415H174.712Z" fill="#545482"/>
<path d="M9.55859 105.569H41.7002C45.8674 117.681 53.3637 127.167 64.4433 133.712C72.6788 138.578 81.6301 140.865 91.1841 140.662C112.811 140.201 131.604 126.165 138.455 105.573H170.601C164.631 139.726 133.487 171.281 91.4336 171.926C47.9204 172.594 15.6752 140.394 9.55859 105.564V105.569ZM71.318 155.461C72.6506 155.522 73.5405 156.068 73.969 157.31C74.4352 158.651 74.9484 159.978 75.4381 161.31C75.5935 161.729 75.7207 162.143 76.2622 162.251C77.0862 162.416 77.8961 162.637 78.9037 162.882C78.0656 160.529 77.6701 158.204 76.1727 156.275C76.3799 156.242 76.4976 156.209 76.6153 156.2C78.7719 156.035 79.9538 154.976 80.241 152.944C80.4953 151.137 79.6006 149.753 77.6465 149.076C75.3534 148.28 72.9661 147.833 70.5317 147.212C69.4628 151.513 68.4127 155.72 67.3486 160.007C68.2432 160.237 69.0531 160.444 69.9666 160.679C70.4281 158.896 70.8707 157.183 71.318 155.461ZM110.198 155.499L110.019 155.602C107.853 153.626 105.668 151.668 103.535 149.664C103.022 149.179 102.574 149.005 101.915 149.297C101.44 149.504 100.917 149.593 100.295 149.767C101.51 154.002 102.702 158.167 103.926 162.43C104.778 162.213 105.56 162.068 106.341 161.677C105.621 159.131 104.915 156.619 104.208 154.111C104.759 154.299 105.103 154.581 105.428 154.878C107.213 156.492 108.997 158.101 110.768 159.729C111.111 160.044 111.427 160.331 111.945 160.157C112.595 159.936 113.291 159.861 113.998 159.461C112.792 155.273 111.592 151.08 110.377 146.859C109.477 147.128 108.748 147.344 107.956 147.579C108.347 148.953 108.71 150.238 109.077 151.523C109.454 152.845 109.831 154.172 110.203 155.494L110.198 155.499ZM39.393 129.134C40.5607 127.934 41.0128 126.63 40.8197 125.129C40.4006 121.906 37.4153 119.186 34.3547 119.191C30.9691 119.196 27.5835 121.996 27.075 125.125C26.5523 128.324 29.1421 132.07 32.5936 133.317C32.895 133.425 33.1304 133.406 33.3894 133.237C34.7361 132.348 36.0922 131.472 37.4954 130.56C36.4171 128.903 35.4 127.346 34.3735 125.774C33.6248 126.127 33.0174 126.499 32.4712 127.03L34.025 129.477C33.4835 129.793 33.088 130.498 32.4288 130.24C29.9096 129.237 28.6383 126.607 30.1733 124.452C31.0397 123.233 32.2593 122.414 33.7096 121.963C35.1222 121.52 36.2805 121.963 37.2364 122.998C38.4277 124.297 38.5172 125.732 37.5895 127.214C38.2064 127.868 38.7573 128.456 39.4024 129.143L39.393 129.134ZM147.359 132.131C146.384 131.44 145.494 130.814 144.543 130.141C145.81 128.31 147.025 126.555 148.277 124.748L146.417 123.454C145.127 125.28 143.889 127.03 142.622 128.828C141.84 128.273 141.12 127.76 140.343 127.205C141.699 125.247 143.018 123.351 144.388 121.374C143.649 120.979 143.178 120.391 142.41 120.193C140.555 122.852 138.723 125.473 136.863 128.132C140.522 130.696 144.058 133.166 147.684 135.707C149.619 132.945 151.521 130.23 153.457 127.468C152.783 126.998 152.228 126.607 151.587 126.155C150.156 128.179 148.781 130.127 147.364 132.131H147.359ZM133.52 141.688C135.234 140.187 136.84 138.78 138.469 137.354C137.909 136.714 137.461 136.197 136.976 135.642C135.3 137.086 133.675 138.488 131.985 139.942C131.349 139.199 130.775 138.531 130.167 137.82C131.98 136.239 133.718 134.719 135.484 133.171C134.952 132.555 134.481 132.014 133.977 131.43C131.462 133.618 129.042 135.722 126.561 137.881C129.475 141.232 132.324 144.507 135.239 147.852C137.814 145.612 140.315 143.439 142.857 141.227C142.226 140.643 141.897 139.971 141.261 139.58L135.785 144.318C135.027 143.443 134.316 142.615 133.525 141.697L133.52 141.688ZM58.6846 153.094C58.7787 154.186 58.3314 155.216 58.5292 156.346C59.3249 156.699 60.0407 157.296 61.0672 157.47L62.3291 143.528C61.5051 143.034 60.6999 142.582 59.7534 142.206C56.2784 145.307 52.8034 148.403 49.253 151.57C50.1618 152.144 50.9434 152.544 51.824 152.878C52.5774 152.191 53.3213 151.508 54.1171 150.779C55.6474 151.556 57.1636 152.323 58.6846 153.094ZM88.5472 150.384C87.0686 154.859 85.6231 159.23 84.1351 163.743C85.2181 163.677 86.1034 163.62 86.9933 163.564C87.4548 162.566 87.5207 161.479 88.0575 160.571C89.795 160.43 91.4854 160.336 93.1099 160.364C93.7126 161.315 93.8916 162.355 94.4378 163.042H97.3996C95.3701 158.647 93.416 154.426 91.4666 150.205C90.4589 150.102 89.5407 150.205 88.5472 150.384ZM45.7356 130.837C45.0952 131.425 44.4548 131.938 43.8992 132.531C42.2276 134.31 40.4101 135.957 38.9315 137.914C37.9804 139.175 37.8532 140.573 38.5313 141.947C39.3459 143.594 40.6361 144.86 42.3124 145.627C43.6826 146.252 45.0528 146.064 46.2159 145.1C48.7633 142.996 50.8304 140.413 53.213 138.102C52.5774 137.34 51.9417 136.757 51.2024 136.192C50.7504 136.667 50.3643 137.081 49.964 137.491C48.316 139.18 46.6679 140.874 45.0105 142.559C44.4313 143.147 43.7438 143.453 42.9057 143.161C40.8998 142.469 40.3018 140.342 41.705 138.79C42.8256 137.552 44.0122 136.376 45.1658 135.166C45.971 134.329 46.7715 133.486 47.6191 132.597C46.8987 131.924 46.2771 131.345 45.7309 130.833L45.7356 130.837ZM118.415 145.994C120.312 149.137 122.158 152.191 124.046 155.311C124.856 154.826 125.6 154.379 126.382 153.913C124.484 150.746 122.657 147.688 120.816 144.61C121.857 143.759 123.071 143.33 124.079 142.436C123.556 141.862 123.439 141.09 122.765 140.658C119.799 142.446 116.856 144.215 113.894 145.998C114.341 146.737 114.695 147.325 115.076 147.956C116.201 147.292 117.242 146.676 118.415 145.989V145.994Z" fill="white"/>
<path d="M170.667 74.2061H138.464C134.405 62.367 127.144 53.0313 116.442 46.4813C108.098 41.3711 98.9817 38.9383 89.2111 39.103C67.9183 39.4607 48.7727 53.0972 41.7002 74.2014H9.54443C15.6045 40.3829 45.632 9.59956 86.5507 7.89617C129.631 6.10337 163.628 36.8491 170.667 74.2061ZM59.0848 29.5509C61.3826 31.099 63.704 32.6094 65.9595 34.2093C66.6281 34.6846 67.1555 34.7269 67.8194 34.3364C68.2667 34.0729 68.8035 33.974 69.2885 33.5741C67.5133 29.6026 65.7382 25.6218 63.9394 21.5986L61.6416 22.6385C62.7576 25.1748 63.8406 27.6357 64.9236 30.0967C64.3821 29.9932 64.0383 29.7767 63.7087 29.5462C61.6275 28.1204 59.5462 26.6852 57.4603 25.2642C57.1448 25.0477 56.8623 24.6948 56.3773 24.9583C55.751 25.2971 55.0306 25.4665 54.3949 25.9653C56.1842 29.9791 57.95 33.9364 59.7299 37.9267C60.5586 37.5549 61.2602 37.2397 61.9429 36.9338C61.91 36.3974 61.6369 36.0256 61.4721 35.6163C60.6669 33.6211 59.6216 31.7295 58.9435 29.6826C58.9906 29.6403 59.0377 29.5932 59.0848 29.5462V29.5509ZM38.4795 45.2343C40.636 46.9424 42.7926 48.6505 45.0104 50.4056C45.5943 49.7375 46.1311 49.154 46.5502 48.4152C43.1317 45.6484 39.7508 42.9145 36.337 40.1524C35.4706 41.2252 34.6607 42.2322 33.8131 43.2768C35.4659 45.5872 37.0904 47.8647 38.7149 50.1421C38.6584 50.1986 38.6019 50.2598 38.5407 50.3162C35.9791 49.201 33.4129 48.0905 30.8184 46.9612C29.952 48.0388 29.1421 49.0458 28.3039 50.0857C31.7554 52.876 35.1363 55.6052 38.5689 58.3862C39.1387 57.6851 39.6378 57.0686 40.1699 56.4146C37.9003 54.5747 35.7249 52.8102 33.5541 51.0456L33.6719 50.7962C36.417 51.8361 39.0021 53.2713 41.7708 54.4194C42.3218 53.7371 42.9198 53.1395 43.3671 52.3678C41.6437 50.048 39.9439 47.7564 38.2487 45.4696L38.4795 45.2343ZM104.387 18.1683C103.238 22.4644 102.118 26.6429 100.973 30.9249C103.662 31.5931 106.153 32.5012 108.776 32.8306C110.452 33.0424 111.69 32.2424 112.416 30.732C113.131 29.2403 112.905 28.0404 111.667 26.7464C111.554 26.6288 111.431 26.5347 111.45 26.337C112.486 25.9465 113.277 25.2924 113.583 24.1772C114.064 22.4362 113.202 20.7939 111.356 20.1211C109.138 19.3164 106.826 18.8412 104.392 18.1683H104.387ZM48.7068 30.8025C45.3071 30.8167 42.1899 33.8235 42.1805 37.0985C42.1711 40.7923 45.7309 44.5708 49.2059 44.552C52.5962 44.5332 55.7792 41.3899 55.7557 38.0961C55.7275 34.5058 52.1394 30.7884 48.7115 30.8025H48.7068ZM152.675 51.6855C152.058 50.8433 151.554 50.2504 151.164 49.5916C150.773 48.9281 150.241 48.6364 149.492 48.5799C148.437 48.5046 147.378 48.4105 146.337 48.2411C145.249 48.0623 144.11 48.1376 142.914 47.7047C144.463 46.566 145.89 45.5166 147.335 44.4532C146.846 43.625 146.375 42.9333 145.716 42.2651C142.165 44.8437 138.657 47.3941 135.097 49.9774C135.681 50.7586 136.1 51.5256 136.802 52.1608C138.582 50.7539 140.235 49.0458 142.806 50.4762C141.902 52.5513 140.983 54.6641 140.046 56.8192C140.767 57.6992 141.289 58.7014 142.175 59.5155C143.324 56.5275 144.444 53.6195 145.574 50.688C147.915 51.0127 150.165 51.3279 152.68 51.6808L152.675 51.6855ZM71.9395 32.5153C75.3533 31.786 78.5553 31.1037 81.8467 30.3979C81.4653 29.5885 81.6536 28.7933 81.1498 28.2192C78.7954 28.7133 76.4976 29.198 74.1338 29.692C73.8795 28.511 73.6488 27.4522 73.4039 26.3041C75.5558 25.8382 77.6512 25.3818 79.8172 24.9113C79.6665 24.1678 79.5347 23.5043 79.3746 22.6997C77.2086 23.1467 75.1179 23.5796 72.9566 24.0219C72.7165 23.1138 72.4669 22.2715 72.4104 21.2786C74.7035 20.7798 76.9496 20.2905 79.238 19.7917C79.0497 19.0059 79.0779 18.2624 78.6212 17.5895L69.1802 19.6082C70.1126 23.9702 71.0072 28.1675 71.9348 32.5153H71.9395ZM124.206 40.063C124.639 35.2257 125.058 30.5767 125.478 25.8947C124.573 25.443 123.754 25.0336 122.921 24.6195C119.384 27.7722 115.933 30.8496 112.359 34.0399C113.31 34.5199 114.125 34.934 114.93 35.3433C115.754 34.6046 116.503 33.927 117.294 33.2118C118.857 34.0117 120.364 34.7881 121.904 35.5739C121.762 36.6844 121.607 37.7243 121.649 38.7831C122.464 39.1924 123.227 39.5689 124.206 40.063ZM134.801 42.8016C134.528 42.9615 134.391 43.0462 134.25 43.1262C132.743 43.9544 131.594 43.865 130.577 42.8486C129.551 41.8228 129.419 40.4817 130.224 39.0372C130.907 37.8137 131.792 36.7456 132.979 35.988C134.631 34.9293 136.736 35.6445 137.447 37.4138C137.758 38.1855 137.532 38.9195 137.358 39.7195C138.163 40.1194 138.935 40.5053 139.712 40.8911C140.31 39.5359 140.437 38.6795 140.225 37.7055C139.444 34.087 135.079 31.946 131.764 33.5976C129.711 34.6234 128.284 36.275 127.488 38.4113C126.697 40.5382 127.107 42.5051 128.59 44.2132C130.718 46.6695 133.93 47.0083 136.199 44.999C135.752 44.3026 135.3 43.5921 134.796 42.8063L134.801 42.8016ZM89.9315 30.092C89.9974 28.925 90.0304 27.7957 89.908 26.6711C89.7714 25.4194 89.9551 24.3042 90.699 23.2126C91.9092 21.4292 92.9733 19.5423 94.0799 17.693C94.2306 17.4436 94.5508 17.2178 94.3342 16.799C94.0234 16.799 93.6938 16.8319 93.3736 16.7943C91.8762 16.6155 91.0239 17.2978 90.4212 18.6576C89.9268 19.7823 89.3241 20.8928 88.5095 21.9656C87.5866 20.474 86.7343 19.0858 85.8679 17.7071C85.6796 17.4107 85.5618 16.9778 85.1192 16.9825C84.2151 16.9872 83.2922 16.8696 82.2422 17.1001C83.7207 19.3446 85.091 21.4574 86.5036 23.5467C86.9744 24.2478 87.2381 24.9442 87.1957 25.8147C87.1298 27.2311 87.1769 28.6474 87.1769 30.0967H89.9268L89.9315 30.092Z" fill="white"/>
<path d="M48.7073 30.8074C52.1352 30.7933 55.7232 34.5106 55.7515 38.1009C55.7797 41.3948 52.592 44.5381 49.2017 44.5569C45.7314 44.5757 42.1669 40.7972 42.1763 37.1034C42.1857 33.8283 45.3076 30.8215 48.7026 30.8074H48.7073ZM53.0817 38.515C53.077 36.6281 50.9015 33.8613 49.0698 33.4048C46.9509 32.8778 44.4741 34.9483 44.8414 37.0798C45.2134 39.2444 46.4471 40.9148 48.5519 41.7289C50.6661 42.5429 53.0911 40.7737 53.0817 38.515Z" fill="#545482"/>
<path d="M71.8784 153.207C72.1327 152.167 72.3681 151.198 72.6177 150.163C73.9126 150.37 75.1227 150.671 76.3046 151.066C77.2699 151.391 77.5901 152.05 77.3452 152.962C77.1145 153.819 76.5542 154.209 75.6077 154.092C74.3646 153.936 73.1545 153.607 71.8784 153.207Z" fill="#FEFEFE"/>
<path d="M55.9627 149.048C57.1069 147.984 58.1899 146.977 59.4377 145.815C59.4801 147.551 59.127 149.019 59.014 150.633C57.8933 150.149 56.9515 149.655 55.958 149.048H55.9627Z" fill="#FEFEFE"/>
<path d="M90.153 153.456C90.8498 155.084 91.4526 156.487 92.1024 157.997C90.9534 158.185 89.9175 158.199 88.7827 158.148C89.0747 156.595 89.6209 155.174 90.153 153.456Z" fill="#FEFEFE"/>
<path d="M104.204 29.4285C104.519 28.2616 104.792 27.2546 105.084 26.1912C106.473 26.3982 107.749 26.7605 108.978 27.264C109.896 27.6357 110.198 28.3557 109.958 29.2309C109.703 30.1579 109.063 30.5908 107.994 30.3791C106.77 30.1391 105.564 29.7768 104.204 29.4333V29.4285Z" fill="#FEFEFE"/>
<path d="M105.748 23.9328C105.889 22.9258 106.167 22.0459 106.501 21.0671C107.66 21.3965 108.785 21.6977 109.901 22.0318C110.716 22.2765 111.121 22.8082 110.937 23.6881C110.749 24.5774 110.137 24.8692 109.308 24.7845C108.093 24.6621 106.963 24.2057 105.753 23.9281L105.748 23.9328Z" fill="#FEFEFE"/>
<path d="M58.9433 29.6878C58.8397 29.6549 58.7502 29.5843 58.835 29.4855C58.9151 29.3914 59.0092 29.4808 59.0799 29.5513C59.0328 29.5984 58.9857 29.6407 58.9386 29.6878H58.9433Z" fill="#FEFEFE"/>
<path d="M122.13 33.0942C121.113 32.5766 120.176 32.0966 119.145 31.5696C120.213 30.365 121.381 29.4003 122.643 28.2004C122.601 29.9462 122.318 31.4614 122.135 33.0942H122.13Z" fill="#FEFEFE"/>
<path d="M71.3181 155.461C70.8708 157.183 70.4281 158.896 69.9667 160.68C69.0532 160.444 68.2433 160.237 67.3486 160.007C68.4175 155.72 69.4628 151.513 70.5317 147.212C72.9614 147.834 75.3487 148.281 77.6466 149.076C79.6054 149.753 80.4954 151.132 80.2411 152.944C79.9538 154.972 78.772 156.035 76.6154 156.2C76.4977 156.209 76.3752 156.238 76.1728 156.275C77.6701 158.209 78.0657 160.529 78.9038 162.882C77.8961 162.637 77.0862 162.416 76.2622 162.251C75.7207 162.143 75.5936 161.729 75.4382 161.31C74.9485 159.978 74.4352 158.651 73.9691 157.31C73.5359 156.073 72.6506 155.522 71.3181 155.461ZM71.8784 153.212C73.1592 153.612 74.3646 153.941 75.6077 154.097C76.5495 154.214 77.1145 153.819 77.3452 152.967C77.5901 152.059 77.2699 151.396 76.3046 151.071C75.1227 150.676 73.9126 150.37 72.6177 150.167C72.3681 151.203 72.128 152.177 71.8784 153.212Z" fill="#545482"/>
<path d="M110.193 155.499C109.816 154.177 109.439 152.85 109.067 151.528C108.705 150.243 108.338 148.958 107.947 147.584C108.738 147.349 109.468 147.133 110.367 146.865C111.582 151.085 112.787 155.278 113.988 159.466C113.282 159.871 112.585 159.941 111.935 160.162C111.417 160.341 111.102 160.054 110.758 159.734C108.987 158.106 107.203 156.497 105.418 154.883C105.089 154.586 104.75 154.304 104.199 154.116C104.905 156.624 105.611 159.132 106.332 161.682C105.55 162.073 104.768 162.214 103.916 162.435C102.692 158.172 101.5 154.007 100.286 149.773C100.907 149.598 101.43 149.509 101.905 149.302C102.569 149.015 103.012 149.184 103.525 149.669C105.663 151.678 107.843 153.631 110.009 155.607L110.188 155.504L110.193 155.499Z" fill="#545482"/>
<path d="M39.3883 129.134C38.7432 128.452 38.1923 127.859 37.5754 127.205C38.503 125.723 38.4136 124.283 37.2223 122.989C36.2664 121.949 35.1081 121.511 33.6954 121.953C32.2452 122.405 31.0256 123.224 30.1592 124.443C28.6289 126.598 29.8955 129.228 32.4147 130.23C33.0739 130.494 33.4694 129.788 34.0109 129.468L32.4571 127.021C33.0033 126.494 33.6107 126.122 34.3594 125.765C35.3859 127.341 36.403 128.894 37.4812 130.55C36.0828 131.463 34.7267 132.338 33.3753 133.228C33.1116 133.402 32.8808 133.416 32.5795 133.308C29.128 132.061 26.5382 128.315 27.0609 125.116C27.5694 121.986 30.955 119.187 34.3405 119.182C37.4012 119.182 40.3865 121.897 40.8056 125.12C41.0034 126.621 40.5466 127.929 39.3789 129.125L39.3883 129.134Z" fill="#545482"/>
<path d="M147.354 132.131C148.772 130.127 150.151 128.179 151.578 126.155C152.219 126.602 152.774 126.993 153.447 127.468C151.512 130.23 149.61 132.946 147.675 135.708C144.049 133.167 140.513 130.692 136.854 128.132C138.709 125.473 140.541 122.852 142.401 120.194C143.168 120.391 143.639 120.979 144.379 121.375C143.008 123.351 141.695 125.247 140.334 127.205C141.111 127.755 141.831 128.268 142.613 128.828C143.879 127.031 145.118 125.285 146.408 123.455L148.268 124.749C147.015 126.555 145.801 128.315 144.534 130.141C145.485 130.814 146.375 131.444 147.35 132.131H147.354Z" fill="#545482"/>
<path d="M133.515 141.688C134.306 142.61 135.017 143.434 135.775 144.309L141.251 139.571C141.887 139.961 142.221 140.634 142.848 141.217C140.305 143.429 137.805 145.603 135.229 147.843C132.314 144.497 129.465 141.222 126.551 137.872C129.032 135.712 131.453 133.609 133.967 131.421C134.471 132.004 134.937 132.545 135.474 133.162C133.708 134.705 131.971 136.225 130.158 137.811C130.765 138.521 131.34 139.189 131.975 139.933C133.666 138.479 135.29 137.077 136.966 135.632C137.451 136.192 137.903 136.705 138.459 137.345C136.83 138.771 135.224 140.178 133.51 141.679L133.515 141.688Z" fill="#545482"/>
<path d="M58.6845 153.09C57.1589 152.318 55.6474 151.551 54.117 150.775C53.3213 151.504 52.5773 152.186 51.8239 152.873C50.9434 152.539 50.1617 152.134 49.2529 151.565C52.8033 148.398 56.2783 145.302 59.7534 142.201C60.6951 142.578 61.5003 143.034 62.329 143.523L61.0671 157.466C60.0453 157.292 59.3249 156.699 58.5291 156.341C58.3313 155.212 58.7786 154.181 58.6845 153.09ZM55.9628 149.048C56.9517 149.659 57.8934 150.149 59.0188 150.633C59.1271 149.019 59.485 147.551 59.4426 145.815C58.1948 146.977 57.1118 147.984 55.9676 149.048H55.9628Z" fill="#545482"/>
<path d="M88.5419 150.379C89.5355 150.2 90.4584 150.101 91.4613 150.2C93.4108 154.421 95.3649 158.642 97.3943 163.037H94.4325C93.8863 162.345 93.7074 161.31 93.1047 160.359C91.4849 160.331 89.7898 160.425 88.0522 160.566C87.5154 161.475 87.4448 162.562 86.9881 163.559C86.0981 163.616 85.2129 163.672 84.1299 163.738C85.6225 159.23 87.0634 154.854 88.5419 150.379ZM90.1523 153.456C89.6202 155.179 89.0787 156.6 88.7821 158.148C89.9169 158.2 90.9528 158.185 92.1017 157.997C91.4519 156.482 90.8492 155.08 90.1523 153.456Z" fill="#545482"/>
<path d="M45.7354 130.832C46.2863 131.345 46.9031 131.924 47.6235 132.597C46.776 133.481 45.9755 134.324 45.1703 135.166C44.0167 136.371 42.8301 137.552 41.7094 138.789C40.3015 140.342 40.9042 142.469 42.9101 143.161C43.7483 143.448 44.4357 143.147 45.0149 142.558C46.6724 140.879 48.3204 139.185 49.9685 137.491C50.364 137.081 50.7548 136.667 51.2069 136.192C51.9414 136.756 52.5818 137.335 53.2175 138.102C50.8349 140.413 48.7678 142.996 46.2204 145.099C45.0573 146.059 43.6871 146.252 42.3168 145.626C40.6405 144.855 39.3456 143.594 38.5357 141.947C37.8577 140.573 37.9848 139.175 38.936 137.914C40.4145 135.957 42.2321 134.31 43.9037 132.531C44.4593 131.938 45.095 131.425 45.7401 130.837L45.7354 130.832Z" fill="#545482"/>
<path d="M118.414 145.989C117.242 146.681 116.201 147.293 115.076 147.956C114.695 147.321 114.341 146.737 113.894 145.999C116.861 144.215 119.799 142.446 122.765 140.658C123.434 141.091 123.556 141.863 124.079 142.437C123.071 143.331 121.856 143.759 120.816 144.611C122.657 147.688 124.489 150.747 126.382 153.913C125.6 154.379 124.856 154.826 124.046 155.311C122.163 152.191 120.317 149.137 118.414 145.994V145.989Z" fill="#545482"/>
<path d="M38.7194 50.1426C37.0949 47.8651 35.4657 45.5924 33.8176 43.2773C34.6605 42.2327 35.4751 41.2257 36.3415 40.1528C39.76 42.9197 43.1361 45.6489 46.5547 48.4157C46.1309 49.1545 45.5941 49.7426 45.0149 50.4061C42.7971 48.651 40.6405 46.9429 38.4839 45.2348C38.338 45.0795 38.1732 45.023 37.9801 45.1407C37.9801 45.3336 38.1449 45.3759 38.2485 45.47C39.9483 47.7569 41.6435 50.0485 43.3669 52.3683C42.9195 53.14 42.3262 53.7376 41.7706 54.4199C39.0066 53.2718 36.4215 51.8366 33.6716 50.7967L33.5539 51.0461C35.7246 52.8106 37.9001 54.5705 40.1697 56.415C39.6376 57.0738 39.1385 57.6855 38.5687 58.3866C35.1313 55.6104 31.7505 52.8765 28.3037 50.0861C29.1419 49.0415 29.9518 48.0392 30.8182 46.9617C33.4127 48.0863 35.9789 49.2015 38.5404 50.3167C38.6158 50.4108 38.7288 50.4861 38.8183 50.3873C38.9219 50.2744 38.7994 50.2038 38.71 50.1426H38.7194Z" fill="#545482"/>
<path d="M104.387 18.1687C106.817 18.8416 109.134 19.3168 111.351 20.1215C113.197 20.7944 114.064 22.4319 113.579 24.1776C113.273 25.2928 112.482 25.9469 111.446 26.3374C111.432 26.5351 111.554 26.6339 111.662 26.7468C112.901 28.0408 113.122 29.2407 112.411 30.7324C111.69 32.2428 110.452 33.0428 108.771 32.831C106.148 32.5017 103.662 31.5888 100.969 30.9253C102.113 26.6433 103.234 22.4648 104.383 18.1687H104.387ZM104.204 29.4243C105.564 29.7725 106.77 30.1301 107.994 30.3701C109.063 30.5818 109.703 30.1489 109.958 29.2219C110.198 28.3467 109.892 27.6268 108.978 27.255C107.749 26.7562 106.473 26.3892 105.084 26.1822C104.797 27.2503 104.524 28.2526 104.204 29.4195V29.4243ZM105.748 23.9282C106.958 24.2106 108.088 24.667 109.303 24.7846C110.132 24.8693 110.744 24.5729 110.932 23.6883C111.121 22.8083 110.711 22.2766 109.896 22.0319C108.781 21.6978 107.655 21.392 106.497 21.0673C106.162 22.046 105.889 22.9213 105.743 23.9329L105.748 23.9282Z" fill="#545482"/>
<path d="M58.9431 29.6878C59.6212 31.7347 60.6665 33.6263 61.4717 35.6214C61.6365 36.0308 61.9096 36.3979 61.9426 36.939C61.2598 37.2448 60.5582 37.5601 59.7295 37.9318C57.9496 33.9416 56.1838 29.9843 54.3945 25.9705C55.0302 25.4764 55.7506 25.307 56.3769 24.9635C56.8666 24.7 57.1444 25.0529 57.4599 25.2693C59.5459 26.6904 61.6271 28.1256 63.7084 29.5513C64.0427 29.7819 64.3817 29.9984 64.9232 30.1019C63.8402 27.6409 62.7572 25.1799 61.6412 22.6437L63.9391 21.6038C65.7378 25.627 67.513 29.6078 69.2882 33.5793C68.8032 33.9745 68.2664 34.078 67.8191 34.3415C67.1504 34.7321 66.6278 34.6898 65.9591 34.2145C63.7037 32.6146 61.3823 31.0995 59.0844 29.5561C59.0138 29.4855 58.9196 29.3961 58.8396 29.4902C58.7501 29.589 58.8396 29.6596 58.9479 29.6925L58.9431 29.6878Z" fill="#545482"/>
<path d="M152.675 51.6857C150.16 51.3328 147.909 51.0222 145.569 50.6929C144.439 53.6244 143.318 56.5324 142.169 59.5204C141.289 58.711 140.766 57.7041 140.041 56.8241C140.978 54.6643 141.901 52.5515 142.8 50.4811C140.229 49.0459 138.577 50.7587 136.797 52.1657C136.1 51.5304 135.676 50.7634 135.092 49.9823C138.652 47.399 142.165 44.8486 145.71 42.27C146.37 42.9335 146.841 43.6299 147.33 44.4581C145.88 45.5215 144.458 46.5708 142.909 47.7096C144.105 48.1425 145.244 48.0672 146.332 48.246C147.377 48.4154 148.432 48.5095 149.487 48.5848C150.235 48.6413 150.763 48.933 151.158 49.5965C151.549 50.2553 152.053 50.8434 152.67 51.6904L152.675 51.6857Z" fill="#545482"/>
<path d="M71.9397 32.5157C71.012 28.1678 70.1127 23.9705 69.1851 19.6085L78.626 17.5898C79.0828 18.2674 79.0545 19.0062 79.2429 19.792C76.9544 20.2908 74.7084 20.7802 72.4152 21.279C72.4717 22.2718 72.7213 23.1141 72.9614 24.0223C75.1227 23.5752 77.2134 23.147 79.3794 22.7C79.5395 23.5047 79.6714 24.1681 79.822 24.9116C77.6513 25.3821 75.5607 25.8386 73.4088 26.3044C73.6583 27.4526 73.8844 28.5113 74.1386 29.6924C76.5024 29.1936 78.8003 28.7136 81.1546 28.2196C81.6584 28.7936 81.4654 29.5889 81.8515 30.3982C78.5601 31.104 75.3582 31.7863 71.9444 32.5157H71.9397Z" fill="#545482"/>
<path d="M124.206 40.0633C123.227 39.5739 122.464 39.1928 121.65 38.7834C121.607 37.7247 121.758 36.6848 121.904 35.5743C120.364 34.7838 118.857 34.0121 117.294 33.2121C116.503 33.9274 115.754 34.6002 114.93 35.3437C114.125 34.9343 113.306 34.5202 112.359 34.0403C115.933 30.8547 119.389 27.7726 122.921 24.6199C123.754 25.034 124.574 25.4433 125.478 25.8951C125.059 30.577 124.64 35.2261 124.206 40.0633ZM122.13 33.0945C122.314 31.4664 122.601 29.9512 122.638 28.2008C121.377 29.4007 120.214 30.3653 119.14 31.5699C120.176 32.0969 121.108 32.5769 122.125 33.0945H122.13Z" fill="#545482"/>
<path d="M134.801 42.8065C135.304 43.5923 135.756 44.3028 136.204 44.9993C133.934 47.0085 130.723 46.6697 128.595 44.2134C127.111 42.5053 126.702 40.5384 127.493 38.4116C128.288 36.2753 129.72 34.6189 131.768 33.5978C135.083 31.9415 139.448 34.0872 140.23 37.7057C140.442 38.6845 140.31 39.5362 139.717 40.8914C138.94 40.5055 138.167 40.1197 137.362 39.7197C137.536 38.9197 137.762 38.1857 137.452 37.414C136.741 35.6447 134.636 34.9295 132.983 35.9882C131.796 36.7458 130.911 37.814 130.228 39.0374C129.423 40.4773 129.56 41.823 130.582 42.8488C131.599 43.8652 132.748 43.9546 134.254 43.1265C134.396 43.0512 134.532 42.9618 134.805 42.8018L134.801 42.8065Z" fill="#545482"/>
<path d="M89.9317 30.0972H87.1818C87.1818 28.6527 87.1347 27.2316 87.2006 25.8152C87.243 24.9447 86.9793 24.2483 86.5085 23.5472C85.1005 21.4579 83.7303 19.3452 82.2471 17.1007C83.2971 16.8701 84.22 16.9877 85.1241 16.983C85.5667 16.983 85.6844 17.4112 85.8728 17.7077C86.7392 19.0864 87.5915 20.4745 88.5144 21.9661C89.329 20.8933 89.9317 19.7828 90.4261 18.6582C91.0241 17.2936 91.8764 16.616 93.3785 16.7948C93.6987 16.8324 94.0283 16.7995 94.339 16.7995C94.5556 17.2183 94.2354 17.4442 94.0848 17.6935C92.9735 19.5428 91.9141 21.4297 90.7039 23.2131C89.9599 24.3095 89.7763 25.4247 89.9128 26.6716C90.0353 27.801 90.0023 28.9256 89.9364 30.0925L89.9317 30.0972Z" fill="#545482"/>
<path d="M53.0814 38.5153C53.0908 40.7739 50.6658 42.5432 48.5516 41.7291C46.4516 40.9198 45.2132 39.2493 44.8412 37.0801C44.4739 34.9485 46.9507 32.8781 49.0696 33.4051C50.9013 33.8615 53.0767 36.6284 53.0814 38.5153Z" fill="#FEFEFE"/>
<g filter="url(#filter0_d_3015_11617)">
<path d="M62.6066 96.412C60.5772 96.412 58.5572 96.1626 56.5418 95.6638C54.5265 95.165 52.7701 94.4545 51.2681 93.5416L54.2675 87.3351C55.4353 88.1115 56.7349 88.7091 58.1663 89.1278C59.5978 89.5419 60.9916 89.7537 62.3524 89.7537C63.7132 89.7537 64.8951 89.4902 65.7285 88.9632C66.562 88.4361 66.9763 87.688 66.9763 86.7139C66.9763 85.8528 66.6279 85.1658 65.9357 84.6529C65.2388 84.14 64.104 83.8812 62.5172 83.8812H59.0563V78.6769L66.8916 70.2211L67.6826 73.0539H52.7654V66.6826H73.851V71.8445L66.0157 80.3003L61.9757 78.0088H64.2264C67.8663 78.0088 70.6209 78.8228 72.4996 80.4462C74.3737 82.0696 75.3107 84.1588 75.3107 86.7139C75.3107 88.3797 74.8587 89.9466 73.9546 91.4194C73.0506 92.8922 71.6709 94.0921 69.8063 95.0238C67.9416 95.9555 65.5402 96.4214 62.5972 96.4214L62.6066 96.412Z" fill="#545482"/>
<path d="M91.4852 96.4118C88.7636 96.4118 86.3951 95.8706 84.3798 94.7884C82.3645 93.7061 80.7965 92.0968 79.6711 89.9558C78.5457 87.8195 77.9854 85.1797 77.9854 82.0412C77.9854 78.6532 78.6446 75.7734 79.963 73.4019C81.2815 71.0303 83.1037 69.2187 85.4204 67.967C87.7418 66.7154 90.4258 66.0942 93.4817 66.0942C95.1203 66.0942 96.6978 66.2825 98.214 66.6542C99.7255 67.0306 101.011 67.5482 102.07 68.2164L99.0709 74.1312C98.2375 73.5477 97.3711 73.1525 96.467 72.9454C95.563 72.7384 94.6401 72.6349 93.6936 72.6349C91.4428 72.6349 89.6441 73.3172 88.2974 74.6771C86.9507 76.037 86.2774 78.0227 86.2774 80.6342C86.2774 81.1048 86.2821 81.5989 86.2962 82.1118C86.3104 82.6247 86.3574 83.147 86.4422 83.674L84.3609 81.9659C84.9166 80.9401 85.5899 80.079 86.381 79.3826C87.172 78.6909 88.1185 78.1591 89.2156 77.8015C90.3128 77.4392 91.5417 77.2604 92.9025 77.2604C94.7342 77.2604 96.4105 77.6415 97.9267 78.4038C99.4382 79.1661 100.658 80.2343 101.571 81.6083C102.489 82.9823 102.946 84.601 102.946 86.4596C102.946 88.4877 102.433 90.2429 101.406 91.7298C100.38 93.2167 99.005 94.3696 97.2816 95.1883C95.5583 96.0071 93.6277 96.4165 91.4899 96.4165L91.4852 96.4118ZM90.9861 90.5393C91.763 90.5393 92.4505 90.3887 93.0485 90.0829C93.6465 89.777 94.1127 89.3488 94.4423 88.7936C94.7766 88.2383 94.9414 87.5842 94.9414 86.8361C94.9414 85.7256 94.5741 84.8362 93.8396 84.1728C93.105 83.5046 92.135 83.1752 90.9437 83.1752C90.1385 83.1752 89.4369 83.3258 88.8389 83.6316C88.2409 83.9375 87.7701 84.3657 87.4216 84.9209C87.0732 85.4762 86.8989 86.1303 86.8989 86.8784C86.8989 87.6266 87.0637 88.2336 87.3981 88.7747C87.7324 89.3159 88.2032 89.7488 88.8154 90.064C89.4275 90.384 90.1479 90.544 90.9814 90.544L90.9861 90.5393Z" fill="#545482"/>
<path d="M115.241 96.412C113.24 96.412 111.224 96.1626 109.199 95.6638C107.17 95.165 105.423 94.4545 103.949 93.5416L106.906 87.3351C108.102 88.1115 109.397 88.7091 110.8 89.1278C112.204 89.5419 113.597 89.7537 114.991 89.7537C116.385 89.7537 117.506 89.4808 118.367 88.9396C119.229 88.3985 119.657 87.6409 119.657 86.6716C119.657 86.0881 119.493 85.5658 119.158 85.1093C118.824 84.6529 118.254 84.3047 117.449 84.0694C116.644 83.8342 115.49 83.7165 113.988 83.7165H106.068L107.528 66.6826H126.113V73.0539H110.443L114.652 69.4306L113.692 80.9262L109.482 77.3029H115.942C118.833 77.3029 121.15 77.7123 122.902 78.5311C124.653 79.3498 125.929 80.4462 126.735 81.8202C127.54 83.1942 127.945 84.7423 127.945 86.4645C127.945 88.1867 127.493 89.8054 126.589 91.3159C125.685 92.8311 124.305 94.0592 122.44 95.0003C120.58 95.9414 118.174 96.4167 115.231 96.4167L115.241 96.412Z" fill="#545482"/>
<path d="M67.4429 119.807V105.013H73.9126C75.5183 105.013 76.9309 105.324 78.1411 105.945C79.3559 106.566 80.2977 107.422 80.9757 108.523C81.6538 109.62 81.9928 110.919 81.9928 112.41C81.9928 113.902 81.6538 115.182 80.9757 116.288C80.2977 117.393 79.3559 118.254 78.1411 118.876C76.9262 119.497 75.5183 119.807 73.9126 119.807H67.4429ZM70.1928 117.483H73.7855C74.9015 117.483 75.862 117.271 76.6719 116.848C77.4818 116.424 78.1081 115.831 78.5554 115.074C79.0028 114.316 79.2241 113.427 79.2241 112.41C79.2241 111.394 79.0028 110.49 78.5554 109.738C78.1128 108.985 77.4818 108.396 76.6719 107.973C75.862 107.549 74.9015 107.338 73.7855 107.338H70.1928V117.483Z" fill="#545482"/>
<path d="M84.2288 119.807L90.8917 105.013H93.5992L100.281 119.807H97.4038L91.6733 106.472H92.7704L87.0588 119.807H84.2241H84.2288ZM87.2942 116.382L88.0335 114.227H96.0289L96.7681 116.382H87.2942Z" fill="#545482"/>
<path d="M106.539 119.807V113.954L107.151 115.643L100.724 105.013H103.662L108.823 113.572H107.175L112.378 105.013H115.085L108.658 115.643L109.293 113.954V119.807H106.544H106.539Z" fill="#545482"/>
</g>
<defs>
<filter id="filter0_d_3015_11617" x="46.2681" y="62.0942" width="88.6768" height="65.7131" filterUnits="userSpaceOnUse" color-interpolation-filters="sRGB">
<feFlood flood-opacity="0" result="BackgroundImageFix"/>
<feColorMatrix in="SourceAlpha" type="matrix" values="0 0 0 0 0 0 0 0 0 0 0 0 0 0 0 0 0 0 127 0" result="hardAlpha"/>
<feOffset dx="1" dy="2"/>
<feGaussianBlur stdDeviation="3"/>
<feColorMatrix type="matrix" values="0 0 0 0 0 0 0 0 0 0 0 0 0 0 0 0 0 0 0.2 0"/>
<feBlend mode="normal" in2="BackgroundImageFix" result="effect1_dropShadow_3015_11617"/>
<feBlend mode="normal" in="SourceGraphic" in2="effect1_dropShadow_3015_11617" result="shape"/>
</filter>
</defs>
</svg>
